<svg id="グループ_1" data-name="グループ 1" xmlns="http://www.w3.org/2000/svg" width="28" height="15" viewBox="0 0 28 15">
  <metadata><?xpacket begin="﻿" id="W5M0MpCehiHzreSzNTczkc9d"?>
<x:xmpmeta xmlns:x="adobe:ns:meta/" x:xmptk="Adobe XMP Core 5.6-c142 79.160924, 2017/07/13-01:06:39        ">
   <rdf:RDF xmlns:rdf="http://www.w3.org/1999/02/22-rdf-syntax-ns#">
      <rdf:Description rdf:about=""/>
   </rdf:RDF>
</x:xmpmeta>
                                                                                                    
                                                                                                    
                                                                                                    
                                                                                                    
                                                                                                    
                                                                                                    
                                                                                                    
                                                                                                    
                                                                                                    
                                                                                                    
                                                                                                    
                                                                                                    
                                                                                                    
                                                                                                    
                                                                                                    
                                                                                                    
                                                                                                    
                                                                                                    
                                                                                                    
                                                                                                    
                           
<?xpacket end="w"?></metadata>
<defs>
    <style>
      .cls-1 {
        fill: #999;
        stroke: #999;
        stroke-width: 1px;
      }

      .cls-1, .cls-2 {
        fill-rule: evenodd;
      }

      .cls-2 {
        fill: #fff;
      }
    </style>
  </defs>
  <path id="長方形_15" data-name="長方形 15" class="cls-1" d="M0,0H24.864L28,3.289V15H0V0Z"/>
  <path id="PDF" class="cls-2" d="M5.319,10.99L6.028,11q0-.332,0-0.508,0-.464.029-1.455L6.11,7.172Q6.139,6.3,6.2,5.341q0.214,0,.492-0.01t0.55-.01a2.4,2.4,0,0,1,.48.037,0.8,0.8,0,0,1,.307.139,0.65,0.65,0,0,1,.212.273,0.947,0.947,0,0,1,.073.376,1.136,1.136,0,0,1-.175.623,1,1,0,0,1-.472.4,1.838,1.838,0,0,1-.7.122,2.9,2.9,0,0,1-.6-0.063Q6.5,7.67,6.607,8.178a3.961,3.961,0,0,0,.708.068,2.942,2.942,0,0,0,1.235-.254,1.942,1.942,0,0,0,.872-0.769,2.152,2.152,0,0,0,.315-1.145A2.047,2.047,0,0,0,9.591,5.3,1.5,1.5,0,0,0,9.205,4.75a1.591,1.591,0,0,0-.591-0.337,3.66,3.66,0,0,0-.991-0.1q-0.327,0-.884.015T5.87,4.345q-0.391,0-1.016-.01,0,0.381,0,.571,0,0.259,0,.513L4.8,7.279,4.674,9.843,4.586,11q0.6-.01.733-0.01h0Zm6.083,0L13.063,11a8.061,8.061,0,0,0,1.589-.142,2.781,2.781,0,0,0,1.277-.637A3.069,3.069,0,0,0,16.8,8.966a4.438,4.438,0,0,0,.29-1.6A4.111,4.111,0,0,0,17,6.505a3.244,3.244,0,0,0-.261-0.767,2.569,2.569,0,0,0-.44-0.627A2.339,2.339,0,0,0,15.66,4.64,2.678,2.678,0,0,0,14.8,4.384a7.76,7.76,0,0,0-1.067-.068q-0.425,0-1.008.015t-0.94.015q-0.479,0-1.021-.01,0,0.591,0,.728L10.7,7.177,10.6,9.3,10.47,11q0.776-.01.933-0.01h0Zm0.767-5.64q0.713-.019,1.265-0.02a2.9,2.9,0,0,1,1.257.208,1.535,1.535,0,0,1,.657.679,2.565,2.565,0,0,1,.249,1.2,3.347,3.347,0,0,1-.093.786,2.746,2.746,0,0,1-.269.7,2.053,2.053,0,0,1-.452.554,1.71,1.71,0,0,1-.55.334,3.079,3.079,0,0,1-.652.139,7.161,7.161,0,0,1-.823.044q-0.391,0-.791-0.02Zm6.666,5.64L19.582,11V10.751l0-.439,0.053-2.158q0.737-.019,1.372-0.02,0.5,0,1.352.02,0.01-.469.044-1.035l-0.664.01q-0.269,0-1.216,0L19.7,7.118l0.059-1.753,1.011,0h1.123l0.283,0,0.7,0.024q0-.327.059-1.055l-0.815,0-1.367,0q-1.05,0-2.45-.01V4.789q0,0.552-.044,1.89Q18.2,8.49,18.142,9.462q-0.03.581-.118,1.538l0.811-.01h0Z"/>
</svg>
